<?xml version="1.0" encoding="UTF-8"?>
<svg width="112px" height="112px" viewBox="0 0 112 112" version="1.1" xmlns="http://www.w3.org/2000/svg" xmlns:xlink="http://www.w3.org/1999/xlink">
    <title>编组</title>
    <g id="页面-1" stroke="none" stroke-width="1" fill="none" fill-rule="evenodd">
        <g id="启动icon" transform="translate(-233.000000, -163.000000)">
            <g id="编组" transform="translate(233.000000, 163.000000)">
                <rect id="矩形" fill="#FCE500" x="0" y="0" width="112" height="112" rx="21"></rect>
                <g id="46856456" transform="translate(21.000000, 20.000000)">
                    <g id="编组" transform="translate(3.964709, 3.990289)" stroke="#FCF07C" stroke-width="0.5">
                        <path d="M54.8454119,56.633726 C58.2422058,55.3358748 60.6308361,53.0138792 62.0113028,49.6677392 C62.5482349,48.3616167 62.8722065,46.696818 62.8880653,45.3049741 C62.9046792,43.8747813 62.607894,42.3348049 61.9977096,40.6850451 C61.3588284,38.9638508 60.0833315,37.1230978 59.0932922,35.3770894 C55.7161329,29.4156966 52.0089606,22.9662936 47.9717751,16.0288806 C47.2301896,14.7550915 46.4636832,13.4797986 45.6722559,12.2030018 C44.4820942,10.2840469 43.3500813,8.35230897 42.2762172,6.40778803 C40.8232533,3.77749638 38.7253668,1.93899921 35.9825576,0.892296529 C30.6019092,-1.16050399 24.92221,0.382480136 21.444612,4.96631602 C21.1516027,5.35131011 20.3782996,6.64690546 19.1247029,8.85310206 C17.8711063,11.0608025 16.7005792,13.1715026 15.6131219,15.1852021 C14.8624742,16.5777979 14.1020092,17.9124942 13.3317269,19.189291 C9.23261682,25.998874 5.36081549,32.5069284 1.71632296,38.7134542 C1.06686926,39.8218161 0.588841122,41.0098838 0.282238559,42.2776573 C-0.0689195485,43.723641 -0.06212294,45.6704177 0.137244244,47.1231689 C0.380411793,48.8827122 1.019293,50.506906 2.05388785,51.9957503 C4.35265189,55.3073011 7.51987147,57.084139 11.5555466,57.3262642 C13.479742,57.4405593 15.9808939,57.4646215 19.0590024,57.3984506 C19.8224881,57.3826598 20.565584,57.5022185 21.322273,57.5067302 C29.4479961,57.535304 37.538981,57.5037224 45.5952277,57.4119856 C48.6265151,57.3758924 51.9908363,57.7255452 54.8454119,56.633726" id="路径"></path>
                        <path d="M2.63839618,31.4903034 C5.47031641,26.7079549 9.70007245,19.6359443 11.1839986,17.195142 C11.2761305,17.0447537 11.2429026,16.9530168 11.0843151,16.9199314 C11.016349,16.9063964 10.9498932,16.9094042 10.8849479,16.9289547 C8.99398034,17.4944147 7.41490163,18.3050077 6.14771172,19.3607337 C3.57632816,21.5015114 1.83639638,24.6777127 1.80467887,28.0343799 C1.79335119,29.3788514 1.73218171,30.7007647 2.05615339,31.9572591 C2.07017915,32.0081759 2.1119705,32.0469796 2.163661,32.057081 C2.2153515,32.0671823 2.26779292,32.0467937 2.29856576,32.0046314 C2.417884,31.8452198 2.5311608,31.6737771 2.63839618,31.4903034" id="路径"></path>
                        <path d="M60.7199472,31.7226533 C62.0702067,26.1236963 59.489761,20.6916703 54.3945702,17.9734015 C53.76022,17.6335239 53.0526176,17.3154526 52.2717628,17.0191876 C51.9379738,16.8913576 51.8564145,16.9838464 52.0270849,17.2966541 C52.2113485,17.6395394 52.4235537,18.0155102 52.6637005,18.4245665 C55.201101,22.7542461 57.693946,27.0546 60.1422354,31.3256282 C60.2268155,31.4730087 60.3363164,31.6249009 60.4707382,31.7813048 C60.5064784,31.8220558 60.5620098,31.839912 60.6145478,31.8275472 C60.6670858,31.8151823 60.7077853,31.7746781 60.7199472,31.7226533" id="路径"></path>
                        <path d="M35.3051623,63.4192469 C37.2603201,62.8034067 38.9617377,61.5153308 40.5045679,60.2678597 C40.5589407,60.2242471 40.585372,60.1678515 40.5839229,60.0986728 C40.5839229,60.053822 40.5473463,60.0174631 40.5023023,60.0174631 L22.7223744,60.0941612 C22.6576026,60.0945311 22.5993729,60.1335487 22.574636,60.1931553 C22.5498991,60.2527619 22.5634819,60.321327 22.6090976,60.367116 C26.0209951,63.7576206 30.7378414,64.8539514 35.3051623,63.4192469" id="路径"></path>
                    </g>
                    <path d="M7.4051049,20.0507507 C9.48260157,18.1175089 12.1808552,16.9038752 14.9969166,16.7752932 C15.4545549,16.7557427 15.8019372,16.5384316 16.0390633,16.1233598 C17.6158765,13.3501993 19.164748,10.6747911 20.685678,8.0971354 C21.6621241,6.44361586 22.9987904,5.10591178 24.3920952,3.77046353 C26.6780212,1.57780188 29.4351787,0.219795382 32.5661497,0.0709109483 C33.6354828,0.0197789208 34.849055,-0.00353126829 36.2068663,0.000431667074 C40.0424191,0.0122595049 43.2504183,0.961961723 46.177491,3.58774173 C47.9506507,5.180354 49.3658556,6.91733905 50.4231058,8.79869689 C51.433535,10.5943334 52.3865705,12.2410855 53.2822125,13.7389531 C54.5237263,15.8143119 57.6524318,16.9241776 59.8137533,17.7926702 C61.3792388,18.4197894 62.863165,19.6537256 64.0956167,20.8944292 C64.9746447,21.7787125 65.5991775,22.4336536 65.9692151,22.8592525 C67.2137496,24.2939571 68.0738982,25.916647 68.5496608,27.7273223 C69.1205759,29.8974257 68.9461296,32.7239742 68.9098811,35.0858227 C68.8917568,36.3220146 68.6448133,37.5582066 68.1690507,38.7943985 C68.0678568,39.0605859 68.1078812,39.3320368 68.2891241,39.6087513 C69.8281784,41.9578168 70.7230652,44.5783332 70.9737845,47.4703005 C71.0145642,47.941016 71.0077676,48.9050051 70.9533947,50.3622679 C70.8514456,53.08956 70.0698356,56.1822957 68.4091976,58.34112 C67.3277816,59.7457469 66.0432226,61.0811951 64.5555205,62.3474647 C62.4168544,64.1656595 59.7435217,65.1740131 56.9274602,65.2619903 C55.9608314,65.292068 54.9451161,65.3244015 53.880314,65.3589908 C52.5028681,65.4018514 51.3610378,65.6071315 50.0878065,66.1507853 C48.5472419,66.8079822 47.3185661,67.4975126 46.4017791,68.2193765 C45.3958811,69.0134269 44.4224557,69.6991976 43.481503,70.2766887 C41.7581851,71.3339186 39.7441235,71.8986267 37.439318,71.9708131 C36.0361959,72.0144257 34.6315635,72.0091621 33.2254207,71.9550223 C29.9298208,71.8271923 27.1424561,70.6880008 24.8633267,68.5374478 C23.8559183,67.5869937 22.9368658,66.6651133 22.1061692,65.7718067 C21.8176909,65.4620068 21.4612465,65.3093626 21.0368361,65.3138743 C18.4677181,65.3341767 15.9461763,65.3635024 13.4269001,65.2236413 C11.2112057,65.1018267 9.02043219,64.4025211 7.33260774,63.2227247 C5.67423526,62.0662386 4.10799458,60.5758904 2.63388571,58.7516801 C0.952857863,56.6748174 0.0828919707,54.273868 0.0239880301,51.5488317 C-0.0213226934,49.459938 -0.00244322529,47.4951146 0.0806264346,45.6543616 C0.159920201,43.8654926 0.989106442,42.1578332 1.66650176,40.5201045 C2.03502898,39.6267979 2.16491972,38.6485219 2.05617398,37.5852765 C1.84321358,35.4986386 1.85454126,33.4097449 1.84774465,31.3479211 C1.84321358,29.5989049 1.97688022,28.2619528 2.24874456,27.3370647 C2.76075573,25.6030874 3.58465572,24.0901809 4.72044453,22.7983453 C5.52244433,21.8869921 6.41733112,20.9711272 7.4051049,20.0507507 Z M58.8101208,60.6240146 C62.2069147,59.3261635 64.595545,57.0041678 65.9760117,53.6580278 C66.5129438,52.3519053 66.8369154,50.6871066 66.8527742,49.2952627 C66.8693881,47.8650699 66.5726029,46.3250935 65.9624185,44.6753337 C65.3235373,42.9541394 64.0480404,41.1133864 63.0580011,39.367378 C59.6808418,33.4059852 55.9736695,26.9565822 51.936484,20.0191692 C51.1948985,18.7453801 50.4283921,17.4700872 49.6369648,16.1932904 C48.4468031,14.2743355 47.3147902,12.3425976 46.2409261,10.3980766 C44.7879622,7.76778498 42.6900757,5.92928782 39.9472666,4.88258513 C34.5666181,2.82978461 28.8869189,4.37276874 25.4093209,8.95660463 C25.1163116,9.34159872 24.3430085,10.6371941 23.0894119,12.8433907 C21.8358152,15.0510911 20.6652881,17.1617912 19.5778308,19.1754907 C18.8271831,20.5680865 18.0667182,21.9027828 17.2964358,23.1795797 C13.1973257,29.9891626 9.3255244,36.497217 5.68103187,42.7037428 C5.03157816,43.8121047 4.55355003,45.0001724 4.24694747,46.2679459 C3.89578936,47.7139296 3.90258597,49.6607064 4.10195315,51.1134575 C4.3451207,52.8730008 4.9840019,54.4971946 6.01859676,55.9860389 C8.3173608,59.2975897 11.4845804,61.0744276 15.5202555,61.3165528 C17.4444509,61.4308479 19.9456028,61.4549101 23.0237113,61.3887392 C23.787197,61.3729484 24.5302929,61.4925072 25.2869819,61.4970188 C33.412705,61.5255926 41.5036899,61.494011 49.5599366,61.4022742 C52.591224,61.366181 55.9555452,61.7158338 58.8101208,60.6240146 Z M6.60310509,35.480592 C9.43502531,30.6982435 13.6647814,23.626233 15.1487076,21.1854306 C15.2408394,21.0350423 15.2076115,20.9433054 15.049024,20.91022 C14.9810579,20.896685 14.9146021,20.8996928 14.8496568,20.9192433 C12.9586892,21.4847033 11.3796105,22.2952964 10.1124206,23.3510223 C7.54103707,25.4918 5.80110528,28.6680013 5.76938778,32.0246685 C5.7580601,33.36914 5.69689062,34.6910533 6.02086229,35.9475477 C6.03488806,35.9984645 6.07667941,36.0372682 6.12836991,36.0473696 C6.18006041,36.057471 6.23250182,36.0370823 6.26327466,35.99492 C6.3825929,35.8355084 6.49586971,35.6640657 6.60310509,35.480592 Z M64.6846561,35.7129419 C66.0349156,30.1139849 63.4544699,24.6819589 58.3592791,21.9636901 C57.7249289,21.6238125 57.0173265,21.3057412 56.2364717,21.0094762 C55.9026827,20.8816462 55.8211234,20.974135 55.9917938,21.2869427 C56.1760574,21.6298281 56.3882626,22.0057988 56.6284094,22.4148551 C59.16581,26.7445347 61.6586549,31.0448886 64.1069444,35.3159168 C64.1915244,35.4632973 64.3010253,35.6151895 64.4354471,35.7715934 C64.4711873,35.8123444 64.5267187,35.8302006 64.5792567,35.8178358 C64.6317948,35.8054709 64.6724942,35.7649667 64.6846561,35.7129419 L64.6846561,35.7129419 Z M39.2698712,67.4095355 C41.225029,66.7936953 42.9264466,65.5056194 44.4692768,64.2581483 C44.5236496,64.2145357 44.5500809,64.1581401 44.5486318,64.0889614 C44.5486318,64.0441106 44.5120552,64.0077517 44.4670112,64.0077517 L26.6870833,64.0844498 C26.6223115,64.0848197 26.5640818,64.1238373 26.5393449,64.1834439 C26.514608,64.2430505 26.5281908,64.3116156 26.5738065,64.3574046 C29.985704,67.7479092 34.7025503,68.84424 39.2698712,67.4095355 Z" id="形状" fill="#000000" fill-rule="nonzero"></path>
                    <path d="M58.8101208,60.6240146 C55.9555452,61.7158338 52.591224,61.366181 49.5599366,61.4022742 C41.5036899,61.494011 33.412705,61.5255926 25.2869819,61.4970188 C24.5302929,61.4925072 23.787197,61.3729484 23.0237113,61.3887392 C19.9456028,61.4549101 17.4444509,61.4308479 15.5202555,61.3165528 C11.4845804,61.0744276 8.3173608,59.2975897 6.01859676,55.9860389 C4.9840019,54.4971946 4.3451207,52.8730008 4.10195315,51.1134575 C3.90258597,49.6607064 3.89578936,47.7139296 4.24694747,46.2679459 C4.55355003,45.0001724 5.03157816,43.8121047 5.68103187,42.7037428 C9.3255244,36.497217 13.1973257,29.9891626 17.2964358,23.1795797 C18.0667182,21.9027828 18.8271831,20.5680865 19.5778308,19.1754907 C20.6652881,17.1617912 21.8358152,15.0510911 23.0894119,12.8433907 C24.3430085,10.6371941 25.1163116,9.34159872 25.4093209,8.95660463 C28.8869189,4.37276874 34.5666181,2.82978461 39.9472666,4.88258513 C42.6900757,5.92928782 44.7879622,7.76778498 46.2409261,10.3980766 C47.3147902,12.3425976 48.4468031,14.2743355 49.6369648,16.1932904 C50.4283921,17.4700872 51.1948985,18.7453801 51.936484,20.0191692 C55.9736695,26.9565822 59.6808418,33.4059852 63.0580011,39.367378 C64.0480404,41.1133864 65.3235373,42.9541394 65.9624185,44.6753337 C66.5726029,46.3250935 66.8693881,47.8650699 66.8527742,49.2952627 C66.8369154,50.6871066 66.5129438,52.3519053 65.9760117,53.6580278 C64.595545,57.0041678 62.2069147,59.3261635 58.8101208,60.6240146 Z" id="路径" fill="#FCE500" fill-rule="nonzero"></path>
                    <path d="M15.1487076,21.1854306 C13.6647814,23.626233 9.43502531,30.6982435 6.60310509,35.480592 C6.49586971,35.6640657 6.3825929,35.8355084 6.26327466,35.99492 C6.23250182,36.0370823 6.18006041,36.057471 6.12836991,36.0473696 C6.07667941,36.0372682 6.03488806,35.9984645 6.02086229,35.9475477 C5.69689062,34.6910533 5.7580601,33.36914 5.76938778,32.0246685 C5.80110528,28.6680013 7.54103707,25.4918 10.1124206,23.3510223 C11.3796105,22.2952964 12.9586892,21.4847033 14.8496568,20.9192433 C14.9146021,20.8996928 14.9810579,20.896685 15.049024,20.91022 C15.2076115,20.9433054 15.2408394,21.0350423 15.1487076,21.1854306 Z" id="路径" fill="#FCE500" fill-rule="nonzero"></path>
                    <path d="M58.3592791,21.9636901 C63.4544699,24.6819589 66.0349156,30.1139849 64.6846561,35.7129419 C64.6724942,35.7649667 64.6317948,35.8054709 64.5792567,35.8178358 C64.5267187,35.8302006 64.4711873,35.8123444 64.4354471,35.7715934 C64.3010253,35.6151895 64.1915244,35.4632973 64.1069444,35.3159168 C61.6586549,31.0448886 59.16581,26.7445347 56.6284094,22.4148551 C56.3882626,22.0057988 56.1760574,21.6298281 55.9917938,21.2869427 C55.8211234,20.974135 55.9026827,20.8816462 56.2364717,21.0094762 C57.0173265,21.3057412 57.7249289,21.6238125 58.3592791,21.9636901 Z" id="路径" fill="#FCE500" fill-rule="nonzero"></path>
                    <path d="M39.2698712,67.4095355 C34.7025503,68.84424 29.985704,67.7479092 26.5738065,64.3574046 C26.5281908,64.3116156 26.514608,64.2430505 26.5393449,64.1834439 C26.5640818,64.1238373 26.6223115,64.0848197 26.6870833,64.0844498 L44.4670112,64.0077517 C44.5120552,64.0077517 44.5486318,64.0441106 44.5486318,64.0889614 C44.5500809,64.1581401 44.5236496,64.2145357 44.4692768,64.2581483 C42.9264466,65.5056194 41.225029,66.7936953 39.2698712,67.4095355 Z" id="路径" fill="#FCE500" fill-rule="nonzero"></path>
                </g>
            </g>
        </g>
    </g>
</svg>